<?xml version="1.0"?>
<svg xmlns="http://www.w3.org/2000/svg" height="512px" viewBox="-77 0 464 464" width="512px"><path d="m252.722656 344h-176v64c.035156 30.914062 25.089844 55.964844 56 56h64c30.914063-.035156 55.964844-25.085938 56-56zm-40 32h-16v-16h16zm24 24h-16v-16h16zm0-24h-16v-16h16zm0 0" fill="#FFFFFF"/><path d="m127.621094 203.921875c-6.820313 4.394531-10.925782 11.964844-10.898438 20.078125v104h48v-104c0-13.253906-10.742187-24-24-24-4.269531-.019531-8.460937 1.132812-12.117187 3.335938-.121094.070312-.25.097656-.371094.160156l-.597656.382812zm0 0" fill="#FFFFFF"/><path d="m100.722656 328v-104c.03125-2.519531.300782-5.027344.800782-7.496094.089843-.449218.160156-.902344.257812-1.351562.523438-2.316406 1.25-4.582032 2.175781-6.769532.175781-.414062.375-.796874.566407-1.222656 1-2.199218 2.195312-4.304687 3.578124-6.289062l.070313-.109375c1.445313-1.976563 3.070313-3.816407 4.855469-5.488281.207031-.203126.351562-.449219.5625-.640626-12.480469-28.710937-28.457032-40.9375-47.539063-36.367187l-.871093.191406c-32 8.398438-27.726563 52.230469-18.527344 87.527344 1.886718 7.246094 4.191406 14.855469 6.863281 22.617187 7.015625 21.511719 17.765625 41.617188 31.761719 59.398438zm0 0" fill="#FFFFFF"/><path d="m244.652344 172.976562c-.65625 63.0625-13.601563 123.496094-32.488282 155.023438h29.878907l29.121093-125.847656c1.859376-7.675782-.207031-15.773438-5.519531-21.621094-5.308593-5.84375-13.175781-8.675781-20.992187-7.554688zm0 0" fill="#FFFFFF"/><path d="m131.605469 168c0 5.480469.109375 11.160156.328125 16.984375.75-.167969 1.527344-.265625 2.292968-.382813.519532-.089843 1.023438-.203124 1.554688-.265624 1.636719-.214844 3.289062-.328126 4.941406-.335938 22.082032.027344 39.976563 17.917969 40 40v104h12.097656c20.617188-24.175781 35.902344-91.664062 35.902344-160v-1.28125c-.238281-87.070312-25.335937-126.71875-48.558594-126.71875-23.390624 0-48.558593 40.054688-48.558593 128zm0 0" fill="#FFFFFF"/><path d="m48.5 121.824219 15.488281-4.03125 8.0625 30.976562-15.488281 4.03125zm0 0" fill="#FFFFFF"/><path d="m3.324219 163.589844 8.09375-13.792969 27.601562 16.191406-8.09375 13.792969zm0 0" fill="#FFFFFF"/><path d="m93.765625 151.714844 16.195313-27.601563 13.792968 8.09375-16.191406 27.601563zm0 0" fill="#FFFFFF"/><path d="m0 211.289062 31.914062-2.34375 1.171876 15.957032-31.914063 2.34375zm0 0" fill="#FFFFFF"/><path d="m13.09375 271.53125 30.960938-8.074219 4.039062 15.480469-30.964844 8.078125zm0 0" fill="#FFFFFF"/><path d="m172.722656 0h16v32h-16zm0 0" fill="#FFFFFF"/><path d="m109.488281 63.527344 7.589844-14.085938 28.171875 15.179688-7.589844 14.085937zm0 0" fill="#FFFFFF"/><path d="m216.191406 64.609375 28.171875-15.171875 7.585938 14.085938-28.171875 15.175781zm0 0" fill="#FFFFFF"/><path d="m247.214844 163.722656 7.207031-31.179687 15.589844 3.601562-7.207031 31.179688zm0 0" fill="#FFFFFF"/><path d="m270.710938 172.96875 27.140624-16.953125 8.476563 13.570313-27.140625 16.953124zm0 0" fill="#FFFFFF"/><path d="m275.371094 219.496094 3.605468-15.589844 31.175782 7.210938-3.605469 15.589843zm0 0" fill="#FFFFFF"/><path d="m264.546875 266.257812 3.605469-15.589843 31.179687 7.210937-3.605469 15.589844zm0 0" fill="#FFFFFF"/><path d="m253.738281 313.023438 3.605469-15.589844 31.179688 7.210937-3.605469 15.589844zm0 0" fill="#FFFFFF"/></svg>
