<?xml version="1.0"?>
<svg xmlns="http://www.w3.org/2000/svg" height="512px" viewBox="-30 0 511 512" width="512px"><path d="m428.519531 21.984375c-29.308593-29.308594-76.75-29.3125-106.0625 0l-65.457031 65.457031-21.214844-21.214844-63.636718 63.640626 21.210937 21.210937-110.824219 110.828125-8.792968 51.25-43.242188 43.660156v43.765625c-10.085938 15.84375-30 48.78125-30 66.417969 0 24.8125 20.1875 45 45 45s44.996094-20.1875 44.996094-45c0-6.121094-1.75-17.394531-16.902344-44.523438-.277344-.496093-.550781-.984374-.828125-1.472656h21.019531l43.65625-44.261718 51.15625-8.777344 110.828125-110.824219 21.210938 21.210937 63.636719-63.636718-21.210938-21.210938 65.457031-65.457031c29.308594-29.308594 29.3125-76.75 0-106.0625zm-383.019531 460.015625c-8.273438 0-15-6.726562-15-14.984375.117188-4.632813 6.347656-18.152344 15-33.339844 8.644531 15.179688 14.875 28.695313 14.996094 33.335938-.003906 8.265625-6.730469 14.988281-14.996094 14.988281zm128.628906-141.988281-51.269531 8.796875-41.621094 42.195312h-20.742187v-21.84375l41.214844-41.613281 8.777343-51.171875 6.367188-6.367188h127.277343zm100.003906-100.003907h-127.277343l67.71875-67.71875 63.636719 63.640626zm133.171876-133.175781-65.453126 65.457031-21.214843-21.210937-21.210938 21.210937 42.425781 42.425782-21.214843 21.210937-106.0625-106.058593 21.210937-21.214844 42.425782 42.425781 21.210937-21.210937-21.210937-21.214844 65.457031-65.457032c17.585937-17.585937 46.050781-17.585937 63.636719 0 17.585937 17.585938 17.589843 46.050782 0 63.636719zm0 0" fill="#FFFFFF"/></svg>
