<?xml version="1.0" encoding="iso-8859-1"?>
<!-- Generator: Adobe Illustrator 17.1.0, SVG Export Plug-In . SVG Version: 6.00 Build 0)  -->
<!DOCTYPE svg PUBLIC "-//W3C//DTD SVG 1.1//EN" "http://www.w3.org/Graphics/SVG/1.1/DTD/svg11.dtd">
<svg xmlns="http://www.w3.org/2000/svg" xmlns:xlink="http://www.w3.org/1999/xlink" version="1.1" id="Capa_1" x="0px" y="0px" viewBox="0 0 400.594 400.594" style="enable-background:new 0 0 400.594 400.594;" xml:space="preserve" width="512px" height="512px">
<g>
	<path d="M166.565,313.912c8.409,0,16.314-3.275,22.261-9.221l2.554-2.553l-6.901-15.163   c-9.513,9.624-18.11,18.472-24.999,26.131C161.777,313.633,164.149,313.912,166.565,313.912z" fill="#FFFFFF"/>
	<path d="M267.345,226.171l37.346-37.346c5.946-5.946,9.222-13.852,9.222-22.261   c0-8.41-3.275-16.315-9.222-22.262l-5.749-5.749c-0.81,18.603-17.485,43.659-39.688,69.839L267.345,226.171z" fill="#FFFFFF"/>
	<path d="M206.48,287.037l45.765-45.764l-7.48-16.434c-14.616,16.054-30.462,32.104-45.221,46.959   L206.48,287.037z" fill="#FFFFFF"/>
	<path d="M366.577,81.537l-71.425,24.942l3.811,3.812l74.991-14.188c-0.628-1.568-1.112-3.038-1.566-4.413   C371.149,87.933,370.305,85.397,366.577,81.537z" fill="#FFFFFF"/>
	<path d="M397.665,96.061c-4.141-4.14-4.993-6.725-6.284-10.637c-1.618-4.906-3.633-11.012-11.135-18.514   c-7.502-7.502-13.607-9.517-18.514-11.135c-3.913-1.29-6.498-2.143-10.638-6.283c-4.14-4.139-4.991-6.724-6.281-10.635   c-1.618-4.906-3.632-11.012-11.134-18.513c-7.501-7.502-13.606-9.515-18.513-11.133c-3.911-1.29-6.495-2.142-10.634-6.281   c-2.621-2.621-6.478-3.577-10.019-2.485c-3.542,1.092-6.189,4.055-6.878,7.697l-14.45,76.373l-2.753-2.754   c-9.725-9.724-22.652-15.079-36.404-15.079c-13.752,0-26.68,5.355-36.403,15.079l-7.281,7.281   c-0.118,0.113-0.234,0.229-0.347,0.347l-60.523,60.523c-0.115,0.11-0.228,0.223-0.337,0.337l-47.377,47.376   c-9.724,9.724-15.079,22.653-15.079,36.404c0,13.752,5.355,26.68,15.079,36.404l2.754,2.753L8.141,287.636   c-3.642,0.689-6.604,3.336-7.696,6.878c-1.093,3.542-0.137,7.398,2.484,10.019c4.14,4.139,4.992,6.723,6.282,10.635   c1.618,4.906,3.631,11.011,11.132,18.512c7.502,7.501,13.607,9.515,18.513,11.133c3.912,1.29,6.496,2.143,10.636,6.282   c4.141,4.14,4.993,6.725,6.283,10.637c1.619,4.906,3.633,11.012,11.135,18.515c7.503,7.502,13.608,9.516,18.515,11.134   c3.912,1.29,6.497,2.143,10.637,6.284c1.904,1.904,4.459,2.929,7.072,2.929c0.984,0,1.978-0.146,2.946-0.445   c3.542-1.093,6.189-4.055,6.878-7.697l14.45-76.373l2.753,2.754c9.725,9.724,22.652,15.079,36.404,15.079   c13.752,0,26.68-5.355,36.403-15.079l7.281-7.281c0.118-0.113,0.234-0.229,0.347-0.347l60.524-60.523   c0.115-0.11,0.227-0.223,0.337-0.337l47.377-47.376c9.724-9.724,15.079-22.653,15.079-36.404c0-13.752-5.355-26.68-15.079-36.404   l-2.754-2.753l76.374-14.449c3.642-0.689,6.604-3.336,7.696-6.878C401.243,102.538,400.287,98.682,397.665,96.061z M91.689,372.388   c-3.912-1.29-6.497-2.143-10.637-6.284c-4.141-4.14-4.993-6.725-6.283-10.637c-1.619-4.906-3.633-11.012-11.135-18.514   c-7.502-7.502-13.607-9.516-18.514-11.134c-3.912-1.29-6.496-2.143-10.635-6.281c-4.139-4.139-4.991-6.723-6.281-10.634   c-0.453-1.375-0.938-2.845-1.565-4.413l74.992-14.188l8.659,8.66l-14.188,74.992C94.535,373.326,93.065,372.841,91.689,372.388z    M128.279,288.666c-0.075-0.078-0.152-0.154-0.23-0.23l-15.904-15.905c-0.066-0.068-0.134-0.135-0.202-0.202l-16.038-16.039   c-5.946-5.946-9.222-13.852-9.222-22.262c0-8.409,3.275-16.315,9.222-22.261l37.346-37.346l51.229,112.553l6.901,15.163   l-2.554,2.553c-5.946,5.946-13.852,9.221-22.261,9.221c-2.416,0-4.788-0.279-7.086-0.805c-5.702-1.306-10.938-4.178-15.176-8.416   L128.279,288.666z M272.546,112.158l15.904,15.905c0.066,0.068,0.134,0.135,0.202,0.202l10.289,10.289l5.749,5.749   c5.946,5.946,9.222,13.852,9.222,22.262c0,8.409-3.275,16.315-9.222,22.261l-37.346,37.346l-8.092-17.779L209.215,98.456   l2.554-2.553c5.946-5.946,13.852-9.221,22.261-9.221c8.409,0,16.315,3.275,22.262,9.221l16.025,16.024   C272.391,112.005,272.468,112.082,272.546,112.158z M252.245,241.272l-45.765,45.764l-6.936-15.239L148.35,159.321l45.765-45.764   l50.65,111.281L252.245,241.272z M298.963,110.291l-3.811-3.812l-4.848-4.848l14.188-74.992c1.568,0.627,3.037,1.112,4.412,1.565   c3.911,1.29,6.495,2.142,10.634,6.281c4.14,4.14,4.992,6.724,6.282,10.635c1.618,4.906,3.632,11.011,11.133,18.513   c7.502,7.502,13.608,9.516,18.515,11.134c3.912,1.29,6.497,2.143,10.637,6.284c0.166,0.165,0.317,0.325,0.473,0.485   c3.728,3.86,4.572,6.396,5.811,10.152c0.454,1.375,0.939,2.845,1.566,4.413L298.963,110.291z" fill="#FFFFFF"/>
</g>
<g>
</g>
<g>
</g>
<g>
</g>
<g>
</g>
<g>
</g>
<g>
</g>
<g>
</g>
<g>
</g>
<g>
</g>
<g>
</g>
<g>
</g>
<g>
</g>
<g>
</g>
<g>
</g>
<g>
</g>
</svg>
