<?xml version="1.0" encoding="iso-8859-1"?>
<!-- Generator: Adobe Illustrator 18.0.0, SVG Export Plug-In . SVG Version: 6.00 Build 0)  -->
<!DOCTYPE svg PUBLIC "-//W3C//DTD SVG 1.1//EN" "http://www.w3.org/Graphics/SVG/1.1/DTD/svg11.dtd">
<svg xmlns="http://www.w3.org/2000/svg" xmlns:xlink="http://www.w3.org/1999/xlink" version="1.1" id="Capa_1" x="0px" y="0px" viewBox="0 0 319.43 319.43" style="enable-background:new 0 0 319.43 319.43;" xml:space="preserve" width="512px" height="512px">
<g>
	<g>
		<path d="M200.465,152.259h-81.5c-12.777,0-23.174,10.395-23.174,23.173v43.885c0,12.777,10.396,23.173,23.174,23.173h81.5    c12.779,0,23.174-10.396,23.174-23.173v-43.885C223.639,162.654,213.244,152.259,200.465,152.259z M208.639,219.316    c0,4.507-3.666,8.173-8.174,8.173h-81.5c-4.506,0-8.174-3.666-8.174-8.173v-43.885c0-4.507,3.668-8.173,8.174-8.173h81.5    c4.508,0,8.174,3.666,8.174,8.173V219.316z" fill="#FFFFFF"/>
		<path d="M270.338,201.482c0-48.476-23.67-92.958-60.664-114.736v-1.528c0-14.081-10.105-25.565-22.637-25.885V38.835h13.293    c9.834,0,17.834-8.711,17.834-19.418S210.164,0,200.33,0h-77.818c-0.064,0-0.129,0.001-0.193,0.003    c-14.02,0.36-30.477,1.432-46.244,6.649c-5.527,1.834-9.854,5.498-12.184,10.317c-2.311,4.778-2.543,10.26-0.656,15.435    c2.693,7.389,10.365,12.55,18.656,12.55c2.047,0,4.064-0.312,6.02-0.934c10.453-3.363,19.225-5.186,35.615-5.186h8.867v20.498    c-12.529,0.319-22.637,11.804-22.637,25.885v1.529c-36.994,21.778-60.664,66.261-60.664,114.735    c0,36.709,13.352,71.331,36.773,95.729c-0.119,0.915-0.18,1.84-0.18,2.774c0,10.722,7.928,19.444,17.674,19.444h112.844    c9.746,0,17.674-8.723,17.674-19.444c0-0.976-0.064-1.941-0.195-2.895C257.031,272.697,270.338,238.12,270.338,201.482z     M83.342,29.733c-0.461,0.146-4.717,1.8-6.016-2.467c-1.195-3.931,1.779-5.816,3.467-6.376c13.869-4.59,28.914-5.557,41.816-5.891    h77.721c1.338,0,2.834,1.889,2.834,4.417s-1.496,4.418-2.834,4.418h-76.805C105.248,23.835,94.941,26.001,83.342,29.733z     M172.037,38.835v20.482h-24.645V38.835H172.037z M220.145,289.44c-2.199,2.134-2.879,5.392-1.717,8.226    c0.299,0.728,0.449,1.508,0.449,2.319c0,2.713-1.584,4.444-2.674,4.444H103.359c-1.09,0-2.674-1.731-2.674-4.444    c0-0.796,0.146-1.565,0.434-2.282c1.133-2.828,0.443-6.06-1.744-8.18c-22.424-21.704-35.283-53.794-35.283-88.041    c0-44.716,22.25-85.427,56.682-103.716c2.451-1.302,3.982-3.85,3.982-6.624v-5.925c0-5.908,3.742-10.9,8.172-10.9h53.574    c4.43,0,8.172,4.992,8.172,10.9v5.924c0,2.774,1.531,5.322,3.982,6.624c34.434,18.289,56.682,59,56.682,103.717    C255.338,235.675,242.51,267.733,220.145,289.44z" fill="#FFFFFF"/>
	</g>
</g>
<g>
</g>
<g>
</g>
<g>
</g>
<g>
</g>
<g>
</g>
<g>
</g>
<g>
</g>
<g>
</g>
<g>
</g>
<g>
</g>
<g>
</g>
<g>
</g>
<g>
</g>
<g>
</g>
<g>
</g>
</svg>
